<svg width="32" height="32" viewBox="0 0 32 32" fill="none" xmlns="http://www.w3.org/2000/svg">
<g clip-path="url(#clip0_2575_57)">
<path d="M16 32C24.8366 32 32 24.8366 32 16C32 7.16344 24.8366 0 16 0C7.16344 0 0 7.16344 0 16C0 24.8366 7.16344 32 16 32Z" fill="#F8D24E"/>
<path d="M20.4456 15.9814H17.8355V25.5999H13.8808V15.9814H12V12.6011H13.8808V10.4136C13.8808 8.84938 14.6196 6.3999 17.8707 6.3999L20.8 6.41223V9.69341H18.6746C18.3259 9.69341 17.8357 9.86861 17.8357 10.6148V12.6042H20.7911L20.4456 15.9814Z" fill="#FCFCFC"/>
</g>
<defs>
<clipPath id="clip0_2575_57">
<rect width="32" height="32" fill="white"/>
</clipPath>
</defs>
</svg>
