<svg width="32" height="32" viewBox="0 0 32 32" fill="none" xmlns="http://www.w3.org/2000/svg">
<circle cx="16" cy="16" r="16" fill="#F8D24E"/>
<path d="M16.0016 6.58813C10.8321 6.58813 6.58984 10.8304 6.58984 15.9999C6.58984 20.4112 9.68526 24.4184 13.7957 25.4117V22.2979C13.3884 22.387 13.0136 22.3896 12.599 22.2674C12.0428 22.1033 11.5908 21.7328 11.2554 21.1678C11.0415 20.807 10.6625 20.4158 10.2672 20.4446L10.1702 19.3459C11.0252 19.2727 11.7648 19.8668 12.2038 20.6044C12.3988 20.9324 12.6233 21.1247 12.9114 21.2097C13.1898 21.2917 13.4888 21.2524 13.8372 21.1293C13.9247 20.4318 14.2442 20.1707 14.4856 19.803V19.8025C12.0342 19.4368 11.0572 18.1363 10.6694 17.1097C10.1556 15.7467 10.4313 14.0439 11.34 12.9678C11.3576 12.9468 11.3895 12.892 11.3772 12.8536C10.9605 11.5952 11.4682 10.5541 11.4869 10.4437C11.9677 10.5859 12.0458 10.3007 13.5754 11.23L13.8398 11.3888C13.9504 11.4547 13.9156 11.4171 14.0262 11.4088C14.6649 11.2353 15.3381 11.1395 16.0015 11.1309C16.6698 11.1395 17.3388 11.2353 18.0038 11.4158L18.0894 11.4244C18.082 11.4233 18.1127 11.419 18.1643 11.3882C20.075 10.2309 20.0064 10.6091 20.5188 10.4425C20.5373 10.5531 21.0382 11.6111 20.6261 12.8536C20.5705 13.0248 22.2826 14.5926 21.3336 17.1093C20.9459 18.1363 19.969 19.4368 17.5176 19.8025V19.803C17.8318 20.282 18.2094 20.5367 18.2073 21.5248V25.4117C22.318 24.4184 25.4132 20.4112 25.4132 15.9999C25.4134 10.8304 21.1711 6.58813 16.0016 6.58813V6.58813Z" fill="#FCFCFC"/>
</svg>
